#!OML:ASF E:\Style3\Style3.ASF
:FULLY-SPECIFIED
:DEGREES
2805
root 0.446883 17.8424 0.787109 42.5398 91.9637 26.2226
lowerback -11.5058 -2.85762 0.275762
upperback -11.0822 -3.1055 2.0266
thorax -5.12674 -1.21782 1.7311
lowerneck -7.7325 -2.046 -7.32925
upperneck 17.7174 -3.36683 10.5436
head 6.95174 -1.12505 4.39713
rclavicle 3.28492e-014 1.27222e-014
rhumerus -38.5047 -36.7115 -58.2357
rradius 9.15689
rwrist 8.04835
rhand 2.58481 9.18968
rfingers 7.12502
rthumb 28.0637 -18.7312
lclavicle 3.28492e-014 1.27222e-014
lhumerus -36.596 28.933 71.3942
lradius 27.8739
lwrist 54.9804
lhand -28.8381 35.5094
lfingers 7.12502
lthumb -2.19537 65.4778
rfemur -15.0072 12.1532 19.0509
rtibia 14.4198
rfoot -14.9933 -22.4947
rtoes -13.481
lfemur 0 0 0
ltibia 0
lfoot 0 0
ltoes 0
2806
root 0.435302 17.8418 0.785748 45.5754 91.9115 29.3295
lowerback -11.441 -2.85179 0.284228
upperback -11.0711 -3.09837 2.09843
thorax -5.14669 -1.21283 1.80456
lowerneck -7.85434 -2.0401 -7.29148
upperneck 17.9519 -3.34191 10.3777
head 7.04375 -1.1169 4.34246
rclavicle 3.27995e-015 1.90833e-014
rhumerus -37.4308 -39.639 -57.2898
rradius 7.68982
rwrist 9.24544
rhand -5.07589 8.56388
rfingers 7.12502
rthumb 20.7205 -20.3499
lclavicle 3.27995e-015 1.90833e-014
lhumerus -35.2655 28.715 72.3975
lradius 28.7913
lwrist 55.8361
lhand -31.8964 35.0586
lfingers 7.12502
lthumb -5.14871 64.9761
rfemur -14.9752 12.1622 19.1121
rtibia 14.4044
rfoot -14.9085 -22.4008
rtoes -13.2604
lfemur 0 0 0
ltibia 0
lfoot 0 0
ltoes 0
2807
root 0.424241 17.8411 0.782342 49.1608 91.8838 32.9921
lowerback -11.4162 -2.80289 0.350077
upperback -11.0289 -3.04059 2.15427
thorax -5.11649 -1.18779 1.83018
lowerneck -8.05576 -2.05182 -7.30751
upperneck 18.219 -3.34252 10.2778
head 7.16515 -1.1168 4.31764
rclavicle 1.35174e-014 -7.15625e-015
rhumerus -36.5434 -42.6097 -56.2041
rradius 6.68981
rwrist 9.74486
rhand -12.6431 7.96727
rfingers 7.12502
rthumb 13.4372 -21.5793
lclavicle 1.35174e-014 -7.15625e-015
lhumerus -33.7699 28.121 73.6418
lradius 29.8757
lwrist 56.7204
lhand -35.6112 34.961
lfingers 7.12502
lthumb -8.73466 64.7603
rfemur -14.9327 12.2108 19.1759
rtibia 14.3959
rfoot -14.9632 -22.3232
rtoes -12.6725
lfemur 0 0 0
ltibia 0
lfoot 0 0
ltoes 0
2808
root 0.413223 17.8418 0.778379 48.4102 91.8619 32.3533
lowerback -11.3111 -2.79468 0.313849
upperback -11.024 -3.02813 2.17258
thorax -5.16568 -1.17915 1.87468
lowerneck -8.14069 -2.06466 -7.34006
upperneck 18.409 -3.35292 10.2377
head 7.24289 -1.12135 4.31329
rclavicle -3.39922e-014 4.37326e-015
rhumerus -35.8982 -45.4992 -54.958
rradius 6.06397
rwrist 9.90199
rhand -19.8417 7.59856
rfingers 7.12502
rthumb 6.49261 -22.2819
lclavicle -3.39922e-014 4.37326e-015
lhumerus -32.2702 27.0647 74.9514
lradius 31.0967
lwrist 57.6901
lhand -38.4944 35.3363
lfingers 7.12502
lthumb -11.5161 65
rfemur -14.8457 12.1112 19.1641
rtibia 14.4075
rfoot -15.0345 -22.2333
rtoes -12.4244
lfemur 0 0 0
ltibia 0
lfoot 0 0
ltoes 0
2809
root 0.398987 17.8452 0.773343 47.7309 91.8125 31.7314
lowerback -11.1665 -2.82091 0.229577
upperback -11.0736 -3.05186 2.23511
thorax -5.29008 -1.18129 1.99316
lowerneck -8.18017 -2.03315 -7.27849
upperneck 18.5873 -3.29103 10.0517
head 7.29837 -1.09906 4.24985
rclavicle -2.40529e-014 1.03368e-014
rhumerus -35.2745 -48.2674 -53.7281
rradius 5.74151
rwrist 9.71377
rhand -26.2164 8.14771
rfingers 7.12502
rthumb 0.336755 -21.8318
lclavicle -2.40529e-014 1.03368e-014
lhumerus -30.8663 26.2303 76.0731
lradius 32.261
lwrist 57.8767
lhand -39.7051 35.2352
lfingers 7.12502
lthumb -12.6835 64.8301
rfemur -14.8371 11.964 19.1171
rtibia 14.4078
rfoot -14.9324 -22.1182
rtoes -12.7312
lfemur 0 0 0
ltibia 0
lfoot 0 0
ltoes 0
2810
root 0.378342 17.8496 0.769393 46.4061 91.7064 30.3821
lowerback -11.0212 -2.7716 0.158141
upperback -11.1523 -2.97538 2.21687
thorax -5.45519 -1.13539 2.02734
lowerneck -8.25262 -2.0636 -7.28643
upperneck 18.8426 -3.32613 9.98328
head 7.39704 -1.11485 4.23116
rclavicle 2.28602e-015 3.57812e-015
rhumerus -35.1624 -51.1433 -52.1771
rradius 6.07439
rwrist 9.4779
rhand -31.3691 9.26442
rfingers 7.12502
rthumb -4.63954 -20.6648
lclavicle 2.28602e-015 3.57812e-015
lhumerus -29.3945 24.8826 77.3186
lradius 33.564
lwrist 58.1348
lhand -40.3301 34.7522
lfingers 7.12502
lthumb -13.286 64.3087
rfemur -14.959 11.8998 18.9678
rtibia 14.406
rfoot -14.9248 -21.9314
rtoes -12.6728
lfemur 0 0 0
ltibia 0
lfoot 0 0
ltoes 0
2811
root 0.361823 17.8521 0.765564 49.5195 91.7018 33.483
lowerback -10.9997 -2.63829 0.293406
upperback -11.187 -2.80143 2.20612
thorax -5.51836 -1.05496 1.9535
lowerneck -8.22904 -2.16149 -7.3449
upperneck 19.0083 -3.44528 9.90725
head 7.45827 -1.179 4.2089
rclavicle 3.55825e-014 9.93923e-015
rhumerus -35.4117 -54.1203 -50.2955
rradius 6.72569
rwrist 9.39695
rhand -34.9775 10.753
rfingers 7.12502
rthumb -8.12303 -19.0709
lclavicle 3.55825e-014 9.93923e-015
lhumerus -27.9257 22.9378 78.7077
lradius 35.0825
lwrist 58.8152
lhand -40.5084 34.2064
lfingers 7.12502
lthumb -13.4579 63.7517
rfemur -15.0659 11.9862 18.9923
rtibia 14.4179
rfoot -14.8658 -21.9448
rtoes -12.5975
lfemur 0 0 0
ltibia 0
lfoot 0 0
ltoes 0
2812
root 0.349246 17.8533 0.760383 52.6503 91.7484 36.5671
lowerback -11.0498 -2.52882 0.45797
upperback -11.2179 -2.65993 2.21238
thorax -5.53736 -0.991975 1.87604
lowerneck -8.18168 -2.22156 -7.41392
upperneck 19.0665 -3.52117 9.90741
head 7.47718 -1.21935 4.21549
rclavicle -7.15625e-015 -8.34896e-015
rhumerus -35.6941 -57.0699 -48.3634
rradius 7.35058
rwrist 9.87453
rhand -37.1644 12.1911
rfingers 7.12502
rthumb -10.2332 -17.54
lclavicle -7.15625e-015 -8.34896e-015
lhumerus -26.6657 20.5237 80.059
lradius 37.1452
lwrist 60.234
lhand -40.5471 33.5505
lfingers 7.12502
lthumb -13.4952 63.0932
rfemur -15.163 12.2306 19.0326
rtibia 14.4193
rfoot -14.8074 -22.1678
rtoes -12.3114
lfemur 0 0 0
ltibia 0
lfoot 0 0
ltoes 0
2813
root 0.339462 17.8534 0.751976 49.8727 91.6221 33.831
lowerback -10.9695 -2.49402 0.353135
upperback -11.2629 -2.60476 2.16291
thorax -5.62923 -0.957515 1.89015
lowerneck -8.15305 -2.22767 -7.34176
upperneck 19.2298 -3.5372 9.85688
head 7.52484 -1.22224 4.18872
rclavicle 1.15295e-014 -5.96354e-015
rhumerus -36.0189 -59.9226 -46.4828
rradius 7.9972
rwrist 10.6922
rhand -38.167 12.8922
rfingers 7.12502
rthumb -11.2003 -16.7889
lclavicle 1.15295e-014 -5.96354e-015
lhumerus -25.4947 18.4587 81.1096
lradius 39.2354
lwrist 61.3636
lhand -40.4592 33.0474
lfingers 7.12502
lthumb -13.4104 62.5958
rfemur -15.1306 12.2695 18.8363
rtibia 14.3851
rfoot -14.7221 -22.2217
rtoes -12.5715
lfemur 0 0 0
ltibia 0
lfoot 0 0
ltoes 0
